PathFileType	4	(X/Y/Z)	C:/Users/beibeiliu/ov580/test_trc/User3\sequence.10_training_dense_left.trc
DataRate	CameraRate	NumFrames	NumMarkers	Units	OrigDataRate	OrigDataStartFrame	OrigNumFrames
120	120	13	19	mm	120	99	263
Frame#	Time	ThumbCMC			ThumbMCP			ThumbIP			ThumbTip			IndexMCP			IndexPIP			IndexTip			MiddleMCP			MiddlePIP			MiddleTip			RingMCP			RingPIP			RingTip			PinkyMCP			PinkyPIP			PinkyTip			BackHand1			BackHand2			BackHand3	
		X0	Y0	Z0	X1	Y1	Z1	X2	Y2	Z2	X3	Y3	Z3	X4	Y4	Z4	X5	Y5	Z5	X6	Y6	Z6	X7	Y7	Z7	X8	Y8	Z8	X9	Y9	Z9	X10	Y10	Z10	X11	Y11	Z11	X12	Y12	Z12	X13	Y13	Z13	X14	Y14	Z14	X15	Y15	Z15	X16	Y16	Z16	X17	Y17	Z17	X18	Y18	Z18	
98	0.816667	-213.174	2.50139	-1.98309	-200.186	5.34895	-28.0544	-192.167	2.09251	-58.9199	-183.799	0.142167	-76.5255	-195.309	-45.4697	-56.5949	-164.9	-43.5509	-39.8192	-182.743	-28.8016	-17.0657	-194.895	-65.0629	-46.7326	-167.45	-59.4303	-31.9351	-192.96	-39.2088	-3.96099	-195.758	-76.3729	-30.533	-175.5	-70.7313	-11.1212	-191.95	-48.1576	7.1754	-200.28	-84.9459	-16.9671	-182.282	-71.229	-0.754548	-202.747	-54.8117	17.9028	-244.6	-56.9766	-10.0823	-251.38	-44.1698	22.6361	-239.337	-17.716	-5.95021	
99	0.825	-212.289	-3.96377	-4.90434	-199.471	-0.56285	-31.191	-188.758	0.216067	-56.8979	-178.666	-2.34605	-75.1721	-191.541	-50.2766	-56.3162	-163.724	-49.0032	-41.8958	-182.552	-31.7063	-16.7328	-195.305	-68.416	-46.2636	-166.695	-60.8832	-28.4135	-192.163	-40.1558	-4.13532	-193.797	-79.9519	-29.1526	-173.634	-69.6004	-11.5727	-191.451	-47.3641	5.69549	-202.701	-86.4516	-17.176	-181.403	-76.0211	-0.874699	-198.985	-58.2522	15.1941	-246.111	-59.4138	-7.95128	-250.719	-44.592	18.8481	-241.957	-21.5559	-6.17031	
100	0.833333	-210.072	-3.42002	-0.82766	-195.848	-1.39524	-31.833	-184.841	-4.10373	-56.1196	-173.997	-5.52796	-75.3263	-192.42	-50.891	-56.1394	-164.32	-52.4683	-41.3585	-183.524	-35.1971	-15.3546	-190.821	-72.1745	-46.0134	-166.241	-65.4578	-28.588	-190.26	-40.6775	-4.84138	-197.239	-80.6848	-30.1284	-173.4	-72.2557	-12.5328	-192.704	-49.0744	7.39085	-200.432	-91.6345	-13.7587	-181.134	-76.8277	-0.973874	-198.712	-58.0902	16.2212	-245.254	-60.4205	-8.50194	-250.061	-41.5025	21.1693	-237.813	-21.336	-8.82093	
101	0.841667	-207.581	-4.88525	-6.69025	-193.254	-6.7679	-28.532	-181.765	-11.165	-55.1952	-170.308	-12.4146	-74.657	-192.052	-53.1642	-56.0308	-164.426	-54.5228	-41.8347	-183.326	-37.7088	-14.0857	-196.225	-71.7789	-45.2248	-168.412	-67.937	-24.6527	-189.633	-47.242	-2.85502	-197.786	-82.4409	-30.3897	-175.289	-74.9769	-7.79552	-191.732	-51.9352	7.59405	-203.074	-92.7486	-13.864	-183.057	-79.5102	-2.09611	-200.783	-59.0649	17.0409	-246.662	-58.0714	-7.97371	-249.508	-44.7174	18.927	-238.226	-21.6076	-12.3032	
102	0.85	-203.571	-4.91078	-5.73869	-188.646	-7.41977	-31.4833	-176.543	-13.3518	-54.2788	-164.981	-17.0491	-73.939	-190.337	-55.1749	-57.235	-164.766	-58.1938	-39.7451	-178.955	-42.7838	-14.6148	-197.38	-75.7257	-44.7344	-169.268	-69.9793	-27.8435	-190.569	-47.7662	-2.634	-203.087	-85.0692	-27.7082	-178.439	-77.0824	-9.31533	-194.271	-54.3957	9.13768	-209.811	-90.8347	-14.7856	-187.137	-79.298	-0.96823	-204.09	-60.6679	17.5977	-247.783	-56.453	-7.82454	-248.974	-38.4757	17.4319	-237.077	-21.6426	-9.82904	
103	0.858333	-198.558	-9.62399	-1.16147	-183.844	-11.0095	-25.7956	-169.781	-14.6781	-52.1777	-159.866	-19.7177	-72.0351	-195.236	-56.5788	-55.8882	-168.496	-65.0433	-38.3511	-180.134	-44.28	-13.8457	-202.244	-73.5245	-45.7138	-175.944	-75.9027	-24.7354	-190.684	-50.8939	-3.0076	-207.765	-81.7857	-30.7878	-184.378	-81.0203	-10.7998	-197.9	-54.9897	8.62562	-215.09	-90.3839	-16.7894	-193.593	-81.0016	-0.713231	-208.429	-58.6806	16.86	-248.297	-50.0725	-8.45021	-248.783	-34.0838	18.3409	-232.76	-17.849	-7.35982	
104	0.866667	-190.982	-10.314	4.40953	-177.256	-14.8417	-23.8908	-162.938	-18.3107	-49.7853	-153.823	-22.9976	-71.6532	-194.507	-53.3545	-56.438	-172.347	-69.3185	-37.2796	-182.511	-49.3965	-11.3526	-207.042	-70.9665	-46.3295	-181.5	-79.7409	-27.6812	-196	-49.9449	-2.62302	-212.065	-81.4891	-32.1528	-191.395	-84.5423	-13.3755	-198.628	-56.5231	7.84574	-225.447	-84.424	-18.8545	-201.199	-83.0743	-2.54904	-211.469	-61.5501	17.7969	-250.136	-40.8998	-9.04238	-249.377	-26.7128	24.142	-222.967	-10.4291	-3.47523	
105	0.875	-185.937	-13.8483	4.16405	-170.05	-17.9616	-19.4021	-161.066	-23.4988	-47.1107	-149.736	-26.7138	-62.5987	-191.242	-49.1352	-56.0547	-175.641	-71.8216	-41.3497	-179.631	-50.4863	-11.2065	-205.45	-63.1615	-50.1013	-184.976	-80.4132	-31.5231	-193.015	-51.6574	-2.82524	-219.348	-72.0054	-35.0224	-194.551	-82.9748	-13.7754	-200.363	-55.8488	8.42529	-229.29	-82.0524	-20.5501	-207.125	-84.2621	-3.71072	-210.704	-59.6178	12.1822	-243.14	-29.8593	-9.44679	-242.076	-19.262	23.0797	-219.019	-10.732	-3.92749	
106	0.883333	-176.177	-14.5715	7.33876	-161.175	-20.2652	-15.518	-153.535	-26.2564	-45.0961	-144.422	-31.3834	-66.6529	-187.812	-50.6038	-56.3107	-173.671	-72.6164	-39.5871	-179.519	-54.5693	-11.6276	-205.097	-63.903	-51.2786	-187.715	-80.0115	-31.9883	-196.206	-52.9527	-2.42518	-219.358	-67.8787	-37.4253	-202.066	-84.3555	-17.0371	-201.926	-61.3451	7.22484	-227.328	-76.4514	-25.0724	-211.628	-83.4533	-4.07319	-216.017	-55.6565	14.5503	-241.305	-26.9655	-10.4885	-237.967	-16.6887	24.3698	-208.64	-5.56256	-0.255586	
107	0.891667	-174.393	-19.0423	10.6621	-160.397	-24.0668	-18.6011	-150.423	-29.3183	-41.6026	-139.456	-33.1086	-62.93	-185.212	-45.4597	-55.9036	-174.866	-73.3748	-40.5517	-181.079	-56.4464	-11.6283	-204.346	-61.2152	-51.3788	-187.899	-79.0038	-30.7247	-193.959	-54.9573	-4.35328	-219.304	-66.8235	-38.0501	-205.636	-84.7237	-18.4981	-199.32	-59.5431	5.75777	-230.135	-72.1654	-27.4873	-212.675	-79.6367	-8.87243	-213.395	-55.1211	9.98586	-239.031	-21.92	-9.96821	-234.241	-14.2031	24.0556	-205.306	-3.10885	-0.389534	
108	0.9	-171.368	-19.3483	11.6566	-159.684	-26.3635	-15.4493	-145.564	-29.9918	-40.4245	-136.294	-35.8969	-57.8386	-182.913	-45.1364	-55.6575	-173.972	-73.2848	-40.3491	-176.589	-53.3144	-10.5285	-200.677	-58.1873	-52.7177	-187.952	-77.897	-29.478	-191.865	-49.7103	-4.08243	-217.287	-66.8279	-39.0315	-205.282	-82.6965	-19.2617	-200.256	-57.7109	5.13429	-229.873	-69.3932	-27.2491	-212.634	-77.7517	-6.02631	-210.482	-55.13	10.031	-233.382	-16.9374	-10.4632	-231.249	-10.4191	21.4354	-201.986	-5.07563	-0.14464	
109	0.908333	-170.251	-20.3253	10.1345	-152.227	-25.7403	-12.8947	-143.201	-32.6394	-37.8792	-132.682	-37.1801	-59.2476	-182.736	-46.8692	-54.3473	-173.081	-72.0294	-41.9314	-174.454	-57.9684	-11.682	-201.317	-52.6386	-50.7837	-187.209	-78.1485	-31.1658	-192.746	-53.4791	-4.04569	-216.022	-62.1709	-39.8647	-202.62	-79.3891	-17.2758	-201.13	-59.3469	5.63647	-229.469	-68.4063	-28.1773	-210.095	-74.6779	-9.25357	-212.438	-53.0224	11.9398	-231.518	-15.3691	-7.02167	-228.593	-7.53944	24.0952	-197.808	-1.7627	3.78711	
110	0.916667	-165.423	-20.6478	15.7882	-149.217	-27.5819	-13.0496	-139.927	-33.9267	-37.2258	-132.113	-39.1892	-56.5861	-178.589	-44.9506	-53.5219	-173.133	-73.0469	-37.9624	-173.381	-59.6123	-10.0252	-196.484	-54.7532	-51.2152	-187.331	-78.2258	-30.504	-190.28	-48.1196	-2.10301	-212.323	-59.7972	-40.4949	-201.54	-79.4672	-19.5577	-200.284	-57.4565	6.52778	-226.133	-64.0784	-29.2292	-210.653	-74.5329	-9.98661	-210.665	-52.8691	8.26142	-229.238	-14.5929	-7.59929	-227.855	-8.10853	24.3423	-193.9	-1.13272	4.23614	
